<?xml version="1.0" standalone="no"?>
<!DOCTYPE svg PUBLIC "-//W3C//DTD SVG 20010904//EN"
 "http://www.w3.org/TR/2001/REC-SVG-20010904/DTD/svg10.dtd">
<svg version="1.0" xmlns="http://www.w3.org/2000/svg"
 width="800.000000pt" height="800.000000pt" viewBox="0 0 800.000000 800.000000"
 preserveAspectRatio="xMidYMid meet">

<g transform="translate(0.000000,800.000000) scale(0.100000,-0.100000)"
fill="#000000" stroke="none">
<path d="M210 7973 c0 -16 5 -46 10 -68 6 -22 16 -92 24 -156 15 -120 32 -171
65 -188 15 -9 17 -7 14 12 -3 14 3 30 16 41 12 11 21 30 21 43 0 12 4 23 9 23
5 0 12 63 16 140 5 100 11 143 21 151 29 24 11 29 -91 29 l-105 0 0 -27z"/>
<path d="M740 7991 c0 -5 18 -20 39 -33 114 -67 139 -83 178 -109 23 -16 46
-29 51 -29 6 0 22 -14 36 -30 23 -28 34 -32 105 -40 l80 -9 68 -71 c69 -73 92
-114 112 -205 20 -90 33 -393 35 -785 l1 -385 -32 -60 c-39 -71 -39 -79 -11
-130 16 -31 22 -58 22 -120 1 -70 -2 -84 -24 -114 -28 -37 -83 -65 -150 -76
-25 -3 -88 -18 -140 -32 -65 -17 -111 -24 -144 -20 -32 3 -76 -3 -125 -16 -45
-12 -105 -21 -146 -20 -63 0 -79 4 -145 40 -41 22 -78 47 -82 54 -34 63 -70
159 -75 200 -6 48 -22 59 -24 16 -1 -20 -2 -20 -8 3 -6 21 -9 15 -20 -33 -7
-32 -10 -61 -7 -64 3 -3 1 -13 -3 -22 -5 -9 -10 -117 -12 -241 -2 -124 -7
-231 -12 -237 -5 -7 -6 -24 -3 -38 4 -14 2 -25 -2 -25 -16 0 -84 -70 -86 -88
-2 -9 -12 -18 -23 -20 -42 -6 -58 -39 -56 -110 1 -37 7 -68 12 -70 14 -5 14
-67 1 -93 -6 -10 -21 -19 -34 -19 -18 0 -25 -7 -29 -30 -6 -27 -9 -29 -32 -20
-52 20 -55 11 -55 -154 0 -147 1 -152 25 -178 28 -30 26 -64 -5 -90 -18 -15
-20 -28 -20 -157 l0 -142 40 -40 c27 -27 37 -45 33 -57 -7 -16 -5 -16 20 1 15
10 32 15 37 12 13 -8 13 -46 0 -65 -8 -12 -10 -12 -10 5 -1 17 -3 16 -16 -8
-9 -16 -20 -25 -26 -21 -8 5 -9 1 -5 -10 5 -13 -1 -11 -24 8 -17 14 -35 26
-40 26 -5 0 -9 -38 -9 -85 0 -83 3 -91 34 -86 14 3 26 -21 26 -51 0 -37 -28
-105 -46 -112 -12 -5 -14 -260 -14 -1856 1 -1805 1 -1850 20 -1850 19 0 36 32
25 50 -14 23 15 8 38 -20 l26 -30 249 0 249 0 12 43 c7 23 17 49 22 57 5 8 26
48 46 87 21 40 43 73 50 73 17 0 33 -34 37 -77 3 -31 8 -38 37 -47 36 -12 35
-9 27 -101 l-3 -30 113 -3 c63 -1 112 1 112 7 0 5 9 11 20 14 13 3 20 0 20 -9
0 -11 22 -14 110 -14 l110 0 -1 58 c-1 58 -16 128 -18 87 -1 -19 -3 -18 -21 5
-16 21 -22 23 -37 12 -25 -17 -43 -25 -48 -20 -2 2 1 24 7 48 6 25 10 53 10
63 0 9 5 17 12 17 8 0 16 16 20 38 3 22 19 51 37 70 l31 33 -17 33 c-13 24
-16 46 -13 77 3 24 4 38 1 31 -4 -10 -9 -10 -23 3 -14 13 -16 22 -10 38 5 12
19 91 30 176 24 168 22 284 -7 396 -9 33 -19 107 -24 165 -4 58 -13 157 -20
220 -16 137 -16 260 -1 518 14 234 26 309 63 388 16 34 29 64 29 68 0 16 103
136 117 136 13 0 14 -7 7 -42 -13 -64 -11 -338 4 -458 11 -93 35 -192 63 -270
5 -14 15 -54 23 -90 8 -36 28 -116 45 -178 17 -62 31 -124 31 -138 0 -30 49
-172 61 -180 5 -3 9 -51 9 -108 0 -56 5 -129 12 -161 9 -44 8 -82 -2 -165
l-12 -108 31 -47 c31 -46 44 -125 21 -125 -5 0 -10 -6 -10 -13 0 -8 -7 -28
-16 -45 -8 -17 -20 -76 -25 -129 -5 -54 -14 -114 -19 -133 -13 -52 -40 -216
-40 -245 l0 -25 2733 0 c2645 0 2731 1 2708 19 -20 15 -22 21 -12 39 8 16 9
28 1 41 -5 11 -10 29 -10 40 0 25 -17 28 -23 4 -4 -17 -5 -17 -6 0 -1 11 -9
17 -26 17 -14 0 -25 4 -25 9 0 19 -62 71 -84 71 -18 0 -25 9 -35 40 -6 22 -16
40 -22 40 -13 0 -58 52 -59 68 0 6 -4 12 -10 12 -5 0 -10 11 -10 24 0 13 -7
29 -15 36 -8 7 -12 16 -9 21 2 5 5 60 6 124 0 68 4 115 10 115 18 0 -4 132
-27 160 -6 8 -17 34 -24 57 -8 30 -20 47 -41 58 -32 17 -50 60 -50 120 0 22 0
51 -1 65 -3 38 20 450 31 554 20 191 62 372 112 473 50 103 81 146 148 204 41
37 70 49 112 49 18 0 51 9 74 21 l43 20 61 -33 c33 -18 73 -48 88 -68 14 -19
31 -40 37 -46 5 -7 19 -24 30 -40 11 -15 30 -40 43 -55 12 -15 22 -30 22 -34
0 -7 81 -141 169 -280 24 -38 45 -61 59 -63 14 -2 22 -11 22 -23 0 -10 4 -19
9 -19 5 0 7 -9 4 -19 -5 -20 7 -51 63 -164 19 -37 34 -73 34 -81 0 -14 46
-105 61 -121 5 -5 9 -16 9 -23 0 -8 15 -38 33 -66 18 -28 44 -76 57 -106 44
-101 62 -103 80 -11 7 36 10 1179 10 3402 l0 3349 -3630 0 c-2217 0 -3630 -4
-3630 -9z m1056 -731 c7 0 14 6 17 13 2 6 7 -11 11 -40 3 -29 14 -60 24 -69
12 -13 13 -19 4 -22 -17 -5 -15 -41 3 -48 20 -8 19 -41 -2 -53 -10 -6 -13 -11
-8 -11 18 -2 40 -8 58 -15 12 -5 17 -2 17 9 0 9 5 16 10 16 6 0 10 -11 10 -25
0 -14 4 -25 9 -25 5 0 11 -9 14 -20 3 -11 1 -18 -4 -14 -20 12 -7 -9 16 -28
14 -11 25 -30 25 -44 0 -13 4 -24 10 -24 5 0 17 -11 26 -25 14 -22 14 -26 1
-40 -12 -11 -17 -12 -20 -2 -3 6 -3 -6 0 -28 4 -22 10 -43 15 -46 5 -3 6 -22
3 -43 -5 -24 -3 -36 4 -36 6 0 11 -9 11 -20 0 -18 11 -25 34 -21 16 3 26 -23
26 -71 0 -29 4 -48 11 -48 7 0 18 -8 25 -17 13 -17 13 -17 14 1 0 23 13 13 17
-13 1 -10 -6 -27 -17 -38 -20 -22 -17 -35 5 -27 7 3 15 -2 19 -11 3 -9 10 -13
16 -10 13 8 13 -1 -2 -25 -18 -28 -5 -36 65 -39 10 -1 17 -7 14 -13 -2 -8 -22
-13 -48 -13 -36 0 -44 -3 -43 -17 1 -10 -4 -18 -12 -18 -8 0 -14 -4 -14 -8 0
-13 23 -32 38 -32 25 0 42 -28 42 -69 0 -23 6 -50 12 -61 10 -16 10 -24 0 -40
-6 -11 -12 -40 -12 -65 l0 -45 -61 0 c-45 0 -65 -4 -73 -16 -10 -13 -35 -16
-129 -18 -76 -1 -121 -6 -129 -14 -17 -17 -47 -15 -54 3 -4 8 -12 15 -20 15
-20 0 -75 36 -67 44 4 3 9 110 11 236 l4 230 -22 0 c-21 0 -21 3 -15 58 3 31
8 102 9 157 2 55 6 132 10 172 5 50 3 77 -5 91 -10 16 -10 28 1 61 8 26 11 59
6 95 -4 35 0 82 10 133 9 43 17 90 19 104 2 15 6 42 10 60 l8 34 16 -52 c8
-29 21 -53 27 -53z m1468 -529 c7 -6 42 -10 78 -10 38 1 74 -5 87 -12 16 -11
23 -11 33 -1 15 15 58 16 58 1 0 -5 15 -16 34 -24 18 -8 40 -25 49 -38 9 -14
28 -28 43 -31 15 -4 41 -18 57 -32 16 -13 34 -24 41 -24 7 0 18 -11 25 -24 7
-13 31 -34 53 -47 22 -13 54 -36 72 -51 26 -23 29 -29 16 -38 -8 -5 -10 -10
-4 -10 7 0 15 -12 19 -27 3 -16 14 -36 22 -46 9 -9 17 -25 19 -35 6 -41 17
-62 35 -62 12 0 23 -11 29 -26 6 -14 19 -28 29 -31 13 -3 18 -12 16 -24 -2
-11 0 -17 6 -14 5 4 9 -5 9 -19 0 -14 4 -26 9 -26 5 0 11 -8 15 -17 24 -68 24
-72 4 -98 -11 -14 -23 -23 -27 -20 -5 2 -23 -7 -41 -20 -19 -14 -55 -28 -82
-31 -31 -4 -61 -17 -85 -35 -20 -16 -42 -29 -49 -29 -8 0 -14 -9 -14 -21 0
-16 -4 -19 -17 -14 -42 17 -53 16 -78 -9 -14 -14 -31 -26 -37 -26 -7 0 -7 -5
1 -14 10 -11 8 -16 -8 -21 -26 -8 -27 -26 -1 -45 23 -16 26 -36 8 -43 -10 -4
-10 -7 0 -18 6 -7 12 -21 12 -30 0 -25 14 -31 45 -19 33 13 50 4 30 -16 -11
-11 -14 -36 -14 -92 1 -86 3 -92 51 -145 31 -34 36 -35 55 -22 21 15 63 17 63
2 0 -5 9 -5 20 -2 11 3 20 3 20 -2 0 -11 140 -33 214 -33 53 0 140 22 221 55
17 7 40 16 53 20 12 3 20 10 17 15 -6 10 28 21 79 25 30 3 45 -2 65 -21 14
-13 31 -24 37 -24 17 0 59 -53 72 -90 7 -18 12 -52 12 -75 0 -28 7 -51 21 -69
11 -15 18 -33 15 -41 -3 -9 0 -15 8 -15 14 0 26 -61 26 -136 0 -51 -8 -74 -25
-74 -6 0 -20 -9 -30 -20 -10 -11 -20 -18 -23 -15 -3 2 -11 -3 -18 -13 -10 -14
-17 -15 -42 -6 -31 12 -112 -1 -112 -17 0 -12 -74 -33 -77 -22 -2 5 -26 8 -53
7 -27 -2 -52 1 -55 6 -3 6 -14 10 -24 10 -10 0 -28 11 -40 24 -13 13 -39 26
-62 30 -22 4 -50 16 -63 29 -12 12 -47 33 -77 47 -29 14 -61 33 -69 42 -8 9
-24 18 -35 20 -18 3 -20 -3 -21 -72 0 -105 -5 -114 -73 -139 -64 -23 -82 -26
-96 -12 -12 11 -116 -37 -151 -70 -12 -11 -27 -18 -32 -15 -6 3 -12 2 -14 -3
-1 -5 -25 -12 -52 -15 -26 -2 -50 -7 -53 -10 -11 -11 11 -49 57 -96 48 -49 48
-49 99 -43 28 3 51 10 51 14 0 5 14 9 31 9 21 0 32 6 35 18 5 19 56 52 80 52
8 0 17 7 20 15 3 8 21 23 40 34 19 11 34 27 34 35 0 17 30 36 57 36 20 -1 76
-48 86 -73 4 -12 18 -17 42 -17 19 0 35 -4 35 -10 0 -5 9 -10 20 -10 11 0 28
-9 37 -20 10 -11 25 -20 35 -20 31 0 28 -17 -8 -42 -20 -14 -35 -30 -34 -34 3
-22 -107 -45 -239 -51 -75 -3 -174 -11 -220 -19 -46 -8 -114 -14 -152 -14 -45
0 -87 -7 -121 -20 -105 -41 -136 -42 -206 -8 -41 20 -73 29 -92 26 -17 -3 -30
-1 -30 4 0 4 9 8 19 8 26 0 69 57 77 101 4 19 14 48 24 64 29 50 32 79 10 127
-15 33 -18 55 -13 96 7 62 -9 70 -34 17 -9 -19 -20 -35 -25 -35 -4 0 -8 -9 -8
-20 0 -21 -77 -99 -97 -100 -7 0 -13 -4 -13 -8 0 -5 -16 -16 -36 -25 -27 -13
-35 -23 -31 -36 3 -14 0 -17 -14 -14 -11 3 -19 1 -19 -4 0 -5 -14 -17 -30 -27
-17 -9 -28 -21 -25 -26 3 -5 -4 -24 -15 -42 -27 -44 -25 -53 10 -68 17 -7 30
-16 30 -21 0 -5 11 -14 25 -19 14 -5 25 -14 25 -18 0 -11 67 0 97 16 31 17 53
15 53 -4 0 -25 50 -63 90 -70 19 -3 47 -10 62 -16 16 -6 40 -8 54 -5 25 4 64
-5 112 -26 33 -16 25 -50 -13 -57 l-30 -5 39 -40 c55 -56 116 -95 149 -95 17
0 27 -5 27 -15 0 -8 6 -15 14 -15 21 0 30 -19 17 -34 -18 -21 22 -24 127 -8
65 10 92 18 92 28 0 8 -7 14 -15 14 -8 0 -15 7 -15 16 0 10 6 13 18 10 12 -4
20 1 27 17 6 12 22 28 38 35 15 7 27 17 27 23 0 5 7 9 15 9 15 0 24 14 29 42
3 24 16 36 71 67 30 17 65 47 77 66 13 19 27 35 31 35 5 0 19 13 32 28 13 16
42 34 63 40 22 7 57 28 78 47 21 19 41 35 45 35 4 0 10 -16 13 -35 7 -36 26
-49 26 -17 0 11 9 27 20 37 11 10 20 25 20 34 1 33 24 48 70 47 25 -1 51 -5
58 -10 7 -4 19 -2 27 4 12 10 18 10 30 0 12 -10 18 -10 30 0 8 7 15 18 15 25
0 8 11 22 25 33 18 14 25 30 25 54 0 22 6 37 20 46 11 7 20 22 20 35 0 12 4
28 9 36 15 23 35 -1 50 -61 8 -29 19 -56 25 -61 7 -5 5 -11 -6 -18 -22 -12
-24 -48 -3 -55 17 -7 20 -40 4 -50 -6 -3 -18 -22 -26 -41 -8 -19 -22 -37 -32
-40 -10 -3 -25 -17 -32 -31 -7 -15 -38 -51 -68 -79 -44 -42 -62 -53 -88 -53
-25 0 -33 -4 -33 -17 -1 -17 -1 -17 -14 0 -38 49 -127 -25 -97 -82 14 -25 14
-91 1 -91 -5 0 -7 -7 -4 -15 4 -10 0 -16 -12 -17 -11 0 -25 -2 -33 -2 -17 -1
-29 -30 -30 -68 -1 -25 -4 -27 -24 -19 -21 8 -25 5 -36 -24 -6 -18 -27 -43
-45 -56 -19 -13 -32 -27 -30 -31 3 -4 -9 -14 -25 -22 -19 -10 -32 -26 -36 -46
-4 -17 -10 -28 -15 -25 -4 2 -44 -13 -88 -35 -44 -22 -85 -40 -91 -40 -11 0
-51 -20 -61 -30 -22 -23 -88 -40 -170 -45 -30 -1 -57 -3 -60 -5 -3 -1 -22 -1
-42 0 -29 1 -38 -2 -38 -15 0 -22 -24 -45 -47 -45 -31 1 -134 62 -180 108 -19
17 -37 32 -41 32 -5 0 -23 16 -42 35 -19 19 -38 35 -42 35 -5 0 -16 8 -26 18
-64 60 -101 92 -106 92 -30 0 -306 296 -306 328 0 4 -18 43 -40 86 -22 43 -40
88 -40 98 0 11 -13 52 -29 92 -16 41 -34 89 -39 107 -6 19 -20 59 -31 89 -26
68 -57 238 -71 390 -5 63 -14 130 -19 147 -12 40 -19 269 -9 278 4 4 19 8 33
8 14 0 25 3 25 7 0 16 57 31 143 35 51 3 106 7 122 10 17 2 46 0 65 -4 19 -5
28 -10 20 -10 -10 -1 -7 -6 8 -15 l24 -13 -29 -11 c-15 -6 -54 -18 -87 -26
-32 -8 -68 -24 -80 -35 -12 -12 -27 -21 -33 -21 -11 0 -73 -83 -73 -97 0 -4
-7 -15 -16 -25 -27 -29 -2 -48 65 -48 51 0 118 -9 211 -29 l35 -8 -28 -11
c-16 -7 -33 -12 -38 -12 -8 0 -29 -40 -29 -56 0 -12 154 -2 192 13 60 24 88
53 51 53 -11 0 -4 11 22 37 28 27 49 38 74 40 58 4 79 20 84 67 4 40 -17 96
-36 96 -4 0 -6 4 -2 9 7 13 -48 51 -75 51 -38 0 -16 24 31 34 60 13 76 34 46
61 -14 12 -21 29 -19 43 6 40 -4 55 -29 42 -17 -9 -25 -8 -40 6 -18 16 -38 18
-177 16 -86 -2 -170 -5 -187 -7 -38 -4 -132 -38 -148 -54 -6 -6 -21 -11 -34
-11 -13 0 -36 -15 -54 -35 -18 -19 -36 -32 -41 -28 -6 3 -8 45 -4 107 3 55 9
150 12 210 3 60 9 127 14 150 43 214 55 259 87 326 82 171 204 328 272 349 23
6 41 16 41 21 0 6 10 10 23 11 12 0 38 7 57 15 38 15 124 12 144 -5z m2416
-286 c0 -11 11 -15 38 -15 l38 0 17 -92 c19 -104 22 -178 7 -178 -5 0 -11 -24
-11 -52 -1 -29 -4 -43 -6 -30 -2 12 -11 22 -19 22 -8 0 -14 10 -14 25 0 15 -7
39 -15 55 -14 27 -14 30 0 30 8 0 21 -11 27 -25 17 -37 28 -30 28 17 0 23 -3
38 -6 35 -4 -3 -14 4 -24 16 -21 28 -23 144 -2 139 8 -1 11 2 7 8 -10 16 -45
-8 -45 -30 0 -11 -4 -20 -10 -20 -5 0 -10 11 -10 24 0 13 -4 26 -9 28 -5 2
-13 15 -16 31 -6 21 -4 27 9 27 9 0 16 -7 16 -15z m-9 -137 c0 -10 2 -10 6 0
2 6 9 10 14 6 12 -7 12 -54 0 -54 -8 0 -41 43 -41 55 0 11 20 4 21 -7z m6
-170 c-3 -8 -6 -5 -6 6 -1 11 2 17 5 13 3 -3 4 -12 1 -19z m-3383 -73 c-4 -8
-8 -15 -10 -15 -2 0 -4 7 -4 15 0 8 4 15 10 15 5 0 7 -7 4 -15z m3383 -37 c-3
-7 -5 -2 -5 12 0 14 2 19 5 13 2 -7 2 -19 0 -25z m-1357 -226 c0 -5 11 -15 25
-22 18 -10 22 -16 13 -22 -10 -6 -10 -8 0 -8 21 0 13 -16 -13 -28 -14 -7 -44
-9 -68 -6 -29 4 -61 -1 -106 -16 -80 -27 -96 -17 -65 38 19 32 30 39 85 54 70
18 129 23 129 10z m-215 -342 c7 -22 6 -23 -9 -8 -9 9 -16 25 -16 34 0 23 15
7 25 -26z m-1118 -157 c-3 -3 -11 -2 -17 2 -9 6 -9 10 1 16 14 8 27 -7 16 -18z
m-2178 -70 c12 -25 14 -26 25 -11 17 23 26 13 26 -27 0 -44 8 -48 35 -17 21
24 26 25 44 15 12 -7 28 -13 36 -13 8 0 15 -9 15 -19 0 -11 5 -23 10 -26 20
-12 10 -35 -15 -35 -16 0 -25 -6 -25 -15 0 -8 5 -15 10 -15 6 0 10 -11 10 -25
0 -14 -4 -25 -10 -25 -5 0 -10 -9 -10 -20 0 -26 -1 -26 -53 10 -25 17 -53 30
-62 30 -16 0 -17 8 -11 69 7 70 -3 96 -27 72 -19 -19 -47 -12 -59 14 -6 14
-15 25 -20 25 -18 0 -6 17 20 27 42 17 48 15 61 -14z m2 -90 c11 -13 11 -17 2
-20 -7 -3 -13 -18 -13 -34 0 -16 -2 -29 -4 -29 -1 0 -18 5 -35 11 l-33 12 29
18 c20 14 23 19 11 19 -20 0 -21 2 -12 24 8 21 38 20 55 -1z m1182 -437 c25
-23 38 -66 19 -66 -5 0 -8 -10 -8 -22 1 -17 -5 -24 -24 -27 -14 -1 -37 -12
-51 -22 -34 -24 -41 -24 -57 1 -7 11 -18 20 -26 20 -19 0 -29 60 -16 96 6 18
26 39 47 51 41 24 60 19 116 -31z m5267 -91 c21 13 30 -18 23 -75 -6 -54 -32
-99 -41 -72 -2 6 -12 12 -21 12 -14 0 -17 -6 -13 -30 5 -33 -24 -104 -39 -95
-19 12 -10 45 14 46 20 1 20 2 2 6 -59 12 -79 39 -50 63 9 8 13 21 9 32 -4 12
6 45 26 85 l32 65 23 -22 c13 -13 29 -19 35 -15z m-6856 -10 c16 -11 36 -20
44 -20 19 0 29 -25 10 -25 -9 -1 -7 -5 5 -14 16 -13 16 -14 -5 -20 -18 -5 -20
-8 -9 -15 14 -9 22 -61 14 -93 -3 -13 -14 -18 -38 -18 -18 0 -35 -6 -38 -12
-3 -10 -7 -10 -18 -1 -8 6 -39 13 -69 15 l-55 3 -3 66 c-2 46 1 71 11 80 7 8
16 22 20 32 4 11 16 21 27 24 11 3 20 8 20 12 0 14 57 4 84 -14z m6096 -5 c45
-45 5 -121 -66 -124 l-39 -1 -3 55 c-2 53 -1 56 30 72 44 22 54 22 78 -2z
m-6178 -260 c2 -5 2 -39 0 -74 -3 -56 -6 -65 -25 -70 -23 -6 -51 19 -43 39 2
6 -9 20 -25 31 -34 22 -37 44 -9 51 11 3 20 12 20 19 0 16 76 20 82 4z m6803
-10 c3 -5 1 -10 -4 -10 -6 0 -11 5 -11 10 0 6 2 10 4 10 3 0 8 -4 11 -10z
m-6735 -14 c0 -11 -19 -15 -25 -6 -3 5 1 10 9 10 9 0 16 -2 16 -4z m123 -38
c6 -27 15 -38 34 -43 26 -6 83 -62 83 -81 0 -30 -43 -104 -71 -122 -31 -19
-32 -19 -73 -1 -22 10 -51 19 -62 19 -12 0 -27 7 -34 15 -9 10 -9 15 -1 15 6
0 11 17 11 40 0 27 7 47 20 60 11 11 20 27 20 36 0 11 -6 14 -20 9 -11 -4 -20
-2 -20 4 0 6 6 11 13 11 6 0 23 19 37 41 29 48 51 47 63 -3z m3553 34 c-3 -5
-23 -17 -46 -27 -30 -13 -44 -15 -52 -7 -8 8 -2 15 23 26 37 16 83 21 75 8z
m-3356 -92 c0 -11 -4 -20 -8 -20 -5 0 -14 -10 -19 -22 -9 -20 -10 -17 -9 20 0
33 4 42 18 42 11 0 18 -8 18 -20z m3866 13 c-10 -11 -37 -12 -30 -2 3 5 12 9
21 9 9 0 13 -3 9 -7z m-3266 -173 c25 -27 27 -35 19 -63 -13 -47 -46 -70 -89
-63 -42 7 -60 28 -60 72 0 32 26 60 70 77 26 10 31 8 60 -23z m5888 -177 c17
-15 19 -25 14 -62 -5 -29 -14 -49 -29 -58 -19 -13 -23 -12 -42 8 -25 27 -28
69 -5 69 8 0 12 5 9 10 -9 15 4 50 20 50 7 0 22 -8 33 -17z m-35 -279 c20 -8
23 -44 3 -44 -8 0 -21 -3 -29 -6 -10 -3 -16 3 -19 18 -6 31 1 50 16 44 6 -4
19 -9 29 -12z m494 -26 c-3 -8 -6 -5 -6 6 -1 11 2 17 5 13 3 -3 4 -12 1 -19z
m-412 -40 c11 -46 10 -111 -2 -115 -7 -2 -15 7 -18 20 -4 13 -17 29 -31 36
-32 14 -33 58 -1 71 35 14 46 12 52 -12z m50 -174 c15 -10 40 -14 66 -13 49 4
73 -18 48 -43 -8 -8 -23 -27 -34 -41 -15 -21 -28 -27 -55 -27 -54 0 -72 18
-72 73 0 43 7 67 18 67 3 0 16 -7 29 -16z m-460 -52 c-12 -12 -32 10 -32 33
l0 27 18 -28 c10 -16 16 -30 14 -32z m262 6 c9 -7 10 -16 3 -27 -5 -10 -7 -27
-4 -38 7 -27 -45 -57 -64 -37 -7 8 -18 11 -25 8 -7 -2 -26 9 -42 26 -16 16
-25 30 -22 30 4 0 3 9 -3 19 -7 14 -6 21 3 25 21 9 141 4 154 -6z m-6172 -341
c0 -26 -20 -25 -23 2 -3 16 1 22 10 19 7 -3 13 -12 13 -21z m6809 -13 c4 -10
-4 -43 -16 -76 -19 -49 -28 -60 -56 -69 -28 -9 -37 -8 -50 4 -12 13 -13 19 -3
31 7 9 10 23 7 32 -8 20 20 67 48 81 32 16 63 15 70 -3z m-106 -186 c-6 -18
-28 -21 -28 -4 0 9 7 16 16 16 9 0 14 -5 12 -12z m-7133 -267 c3 -5 1 -12 -5
-16 -5 -3 -10 1 -10 9 0 18 6 21 15 7z m35 -58 c0 -35 -7 -44 -49 -66 -48 -25
-59 -9 -29 42 14 23 28 38 31 34 4 -3 7 -1 7 5 0 7 9 12 20 12 15 0 20 -7 20
-27z m7322 -229 c-3 -15 -8 -22 -14 -16 -9 9 -1 42 12 42 4 0 5 -12 2 -26z
m-43 -125 c12 -36 14 -118 3 -135 -4 -6 -17 -13 -30 -17 -17 -4 -27 1 -38 19
-23 34 -11 128 19 149 30 21 34 19 46 -16z m-7496 -132 c4 3 7 2 7 -3 0 -5 7
-18 16 -29 13 -17 16 -18 24 -5 9 13 11 13 20 0 6 -8 8 -26 5 -40 -3 -14 -10
-44 -14 -67 -6 -33 -19 -52 -57 -87 -29 -27 -52 -42 -58 -36 -5 5 -9 31 -9 57
2 199 2 201 20 212 11 6 22 6 29 0 6 -5 14 -6 17 -2z m292 -36 c8 -27 -4 -71
-21 -71 -13 0 -34 30 -34 49 0 12 28 41 40 41 5 0 11 -9 15 -19z m7055 -26 c0
-8 -4 -15 -10 -15 -5 0 -10 7 -10 15 0 8 5 15 10 15 6 0 10 -7 10 -15z m-3665
-40 c31 -30 33 -70 4 -85 -11 -7 -26 -9 -34 -7 -7 3 -25 -8 -40 -24 -38 -38
-84 -36 -104 5 -10 21 -10 30 -2 36 7 3 15 20 20 36 6 22 14 29 32 29 13 0 35
8 49 18 33 23 46 22 75 -8z m-3845 -330 c18 -11 11 -59 -14 -89 l-23 -30 -31
25 c-35 27 -39 49 -16 89 15 24 21 27 45 20 16 -5 33 -11 39 -15z m184 -89 c9
-30 16 -65 16 -78 0 -13 7 -33 15 -44 18 -24 20 -74 2 -74 -31 0 -59 56 -63
124 -1 27 -8 60 -15 74 -12 21 -11 26 6 38 10 8 20 14 21 14 2 0 10 -24 18
-54z m600 -97 c21 -106 -25 -190 -74 -136 -26 27 -25 70 1 124 15 32 27 43 44
43 17 0 24 -7 29 -31z m-747 -62 c-2 -7 0 -22 4 -35 7 -17 5 -24 -8 -29 -9 -4
-19 -1 -21 5 -2 7 -12 12 -22 12 -31 0 -44 26 -30 60 7 16 16 30 21 30 4 0 11
9 14 21 6 18 9 17 26 -16 11 -20 18 -42 16 -48z m476 8 c-1 -37 -7 -54 -23
-67 l-21 -17 20 -23 c24 -25 28 -63 8 -71 -23 -9 -39 9 -40 44 -1 19 -8 40
-14 47 -7 7 -13 35 -13 62 0 54 21 78 63 76 20 -1 22 -6 20 -51z m35 -368 c52
-37 52 -48 11 -142 -5 -11 -10 -31 -11 -45 -2 -27 -16 -32 -95 -34 -28 0 -43
-5 -43 -13 0 -7 -4 -13 -10 -13 -6 0 -9 42 -9 103 0 56 -1 117 -2 135 -2 20 3
37 12 42 25 16 102 -2 147 -33z m480 -44 c-3 -42 -28 -59 -28 -20 0 32 9 57
22 57 5 0 8 -17 6 -37z m-55 -101 c3 -27 0 -73 -6 -103 -10 -45 -16 -55 -36
-57 -48 -7 -46 18 14 196 9 27 22 10 28 -36z m-148 -191 c-24 -163 -26 -271
-4 -271 5 0 9 -9 9 -19 0 -11 9 -26 20 -34 26 -18 40 -59 40 -116 0 -59 -18
-80 -54 -63 -15 6 -27 23 -31 41 -4 17 -10 31 -15 31 -5 0 -12 21 -16 46 -4
30 -12 48 -23 51 -9 3 -36 35 -60 73 -44 67 -45 68 -68 53 -19 -13 -23 -13
-21 -2 2 8 6 16 10 20 4 3 4 18 -2 35 -5 16 -14 56 -20 89 -6 33 -13 71 -16
85 -4 18 0 28 17 38 19 12 25 11 54 -18 40 -38 65 -36 85 7 19 40 37 45 74 20
26 -19 28 -23 21 -66z m-435 54 c0 -14 -18 -59 -39 -99 -21 -41 -42 -88 -46
-105 -9 -41 -23 -48 -31 -16 -8 33 1 66 28 101 13 15 21 37 20 47 -4 20 42 97
58 97 6 0 10 -11 10 -25z m730 -109 c0 -3 -4 -8 -10 -11 -5 -3 -10 -1 -10 4 0
6 5 11 10 11 6 0 10 -2 10 -4z"/>
<path d="M2140 6299 c0 -11 5 -17 10 -14 6 3 10 13 10 21 0 8 -4 14 -10 14 -5
0 -10 -9 -10 -21z"/>
<path d="M860 5110 c0 -5 5 -10 10 -10 6 0 10 5 10 10 0 6 -4 10 -10 10 -5 0
-10 -4 -10 -10z"/>
<path d="M896 5103 c-4 -9 -2 -21 4 -27 7 -7 10 -2 10 17 0 31 -5 34 -14 10z"/>
<path d="M285 4240 c4 -6 11 -8 16 -5 14 9 11 15 -7 15 -8 0 -12 -5 -9 -10z"/>
<path d="M1372 1460 c-14 -23 -16 -40 -3 -40 9 0 25 49 19 56 -2 2 -9 -6 -16
-16z"/>
<path d="M740 10 c0 -5 5 -10 10 -10 6 0 10 5 10 10 0 6 -4 10 -10 10 -5 0
-10 -4 -10 -10z"/>
</g>
</svg>
